<svg width="376" height="351" viewBox="0 0 376 351" fill="none" xmlns="http://www.w3.org/2000/svg">
<path d="M159 315.5L188 263L217 315.5C218.2 317.5 217.5 324.667 217 328C212 354.5 167 361 159 328C158.825 327.276 157.5 319.5 159 315.5Z" fill="url(#paint0_linear_381_16)"/>
<path d="M182.964 223.123C183.405 224.712 182.131 224.456 181.464 224.123C121.464 108.123 99.9639 146.123 187.464 0.622748C187.964 -0.377073 189.11 -0.0190071 189.464 0.622748C263.964 135.623 268.964 96.6228 195.464 223.623C194.464 224.623 193.754 223.999 193.964 223.123C208.464 162.623 196.464 116.123 189.464 75.6228C188.964 74.6227 187.964 74.6227 187.464 75.6228L187.358 76.1329C181.308 105.373 168.051 169.437 182.964 223.123Z" fill="url(#paint1_linear_381_16)"/>
<path d="M215 221C214.102 221.737 212 221 212.5 219.5C261.47 141.642 233.207 147.255 352.776 148.382C353.562 148.329 353.754 149.152 353.491 149.596C298.169 243.042 324.84 234.739 221.5 235.5C220.536 235.25 220.419 233.755 221 233.5C249.5 221 267.5 203 292.5 185C292.928 184.339 292.286 183.446 291.5 183.5C272 191.5 234.5 205 215 221Z" fill="url(#paint2_linear_381_16)"/>
<path d="M210.315 252.258C209.559 251.972 209.297 250.419 210.385 250.187C274.694 252.212 261.662 236.912 301.561 310.577C301.861 311.039 301.422 311.453 301.06 311.451C225.048 311.137 239.187 324.494 203.641 261.451C203.466 260.77 204.343 260.161 204.696 260.426C222.027 273.396 239.161 277.956 258.672 286.805C259.223 286.83 259.551 286.115 259.252 285.653C247.732 276.58 226.734 258.455 210.315 252.258Z" fill="url(#paint3_linear_381_16)"/>
<path d="M171.171 260.475C171.793 259.96 173.272 260.502 172.934 261.562C139.297 316.41 159.045 312.676 75.2887 310.811C74.739 310.842 74.5975 310.256 74.778 309.943C112.732 244.083 94.1224 249.741 166.495 250.121C167.172 250.307 167.267 251.37 166.862 251.546C147.007 260.168 134.552 272.788 117.195 285.347C116.901 285.812 117.359 286.452 117.908 286.421C131.498 280.914 157.649 271.662 171.171 260.475Z" fill="url(#paint4_linear_381_16)"/>
<path d="M153.444 233.503C154.528 233.92 154.924 236.112 153.373 236.418C61.4896 232.254 80.3206 254.064 22.2882 149.516C21.8538 148.859 22.4752 148.286 22.9913 148.295C131.567 150.29 111.182 131.192 162.847 220.694C163.105 221.655 161.863 222.495 161.354 222.116C136.416 203.498 111.878 196.726 83.8842 183.867C83.0982 183.821 82.6387 184.82 83.0732 185.477C99.655 198.488 129.904 224.44 153.444 233.503Z" fill="url(#paint5_linear_381_16)"/>
<defs>
<linearGradient id="paint0_linear_381_16" x1="187.978" y1="263" x2="187.978" y2="350.379" gradientUnits="userSpaceOnUse">
<stop stop-color="#609DA9"/>
<stop offset="1" stop-color="#395161"/>
</linearGradient>
<linearGradient id="paint1_linear_381_16" x1="188.52" y1="0" x2="188.52" y2="224.373" gradientUnits="userSpaceOnUse">
<stop stop-color="#609DA9"/>
<stop offset="1" stop-color="#395161"/>
</linearGradient>
<linearGradient id="paint2_linear_381_16" x1="262.78" y1="150.427" x2="307.463" y2="226.339" gradientUnits="userSpaceOnUse">
<stop stop-color="#609DA9"/>
<stop offset="1" stop-color="#395161"/>
</linearGradient>
<linearGradient id="paint3_linear_381_16" x1="269.759" y1="256.171" x2="238.433" y2="310.829" gradientUnits="userSpaceOnUse">
<stop stop-color="#609DA9"/>
<stop offset="1" stop-color="#395161"/>
</linearGradient>
<linearGradient id="paint4_linear_381_16" x1="106.364" y1="255.86" x2="138.304" y2="310.161" gradientUnits="userSpaceOnUse">
<stop stop-color="#609DA9"/>
<stop offset="1" stop-color="#395161"/>
</linearGradient>
<linearGradient id="paint5_linear_381_16" x1="112.453" y1="150.451" x2="68.483" y2="226.778" gradientUnits="userSpaceOnUse">
<stop stop-color="#609DA9"/>
<stop offset="1" stop-color="#395161"/>
</linearGradient>
</defs>
</svg>
